<svg width="363" height="83" viewBox="0 0 363 83" fill="none" xmlns="http://www.w3.org/2000/svg">
<path d="M115.17 60.3135V21.3433H130.396C131.567 21.3433 132.816 21.4223 134.144 21.5014C135.471 21.5804 136.798 21.8175 138.204 22.1337C139.531 22.4499 140.781 23.0033 141.874 23.7937C142.967 24.5842 143.826 25.5328 144.528 26.8766C145.231 28.1413 145.544 29.7222 145.544 31.6984C145.544 33.2003 145.231 34.5441 144.685 35.8089C144.138 37.0736 143.045 38.1012 141.561 38.8917C140.078 39.6822 137.892 40.1565 135.003 40.3146V40.5517C138.282 40.6307 140.781 41.105 142.576 41.9745C144.372 42.8441 145.622 43.9507 146.246 45.2945C146.949 46.6383 147.261 48.2193 147.261 49.9583C147.261 51.9345 146.871 53.5945 146.168 54.8592C145.465 56.124 144.528 57.1516 143.279 57.9421C142.03 58.7325 140.703 59.2859 139.219 59.602C137.735 59.9182 136.252 60.1554 134.846 60.2344C133.363 60.3135 131.957 60.3925 130.708 60.3925H115.17V60.3135ZM121.963 37.5479H129.537C131.099 37.5479 132.582 37.4689 133.988 37.3108C135.393 37.1527 136.486 36.6784 137.267 35.967C138.126 35.2555 138.516 34.0698 138.516 32.4889C138.516 30.7499 138.126 29.5642 137.267 28.8527C136.408 28.1413 135.315 27.667 133.988 27.4299C132.66 27.2718 131.177 27.1927 129.537 27.1927H121.963V37.5479ZM122.041 54.6221H130.162C131.957 54.6221 133.597 54.543 135.081 54.3059C136.564 54.0687 137.814 53.5945 138.672 52.7249C139.609 51.9345 140 50.5907 140 48.8516C140 47.1126 139.531 45.6898 138.594 44.8202C137.657 44.0298 136.408 43.4764 134.846 43.2393C133.285 43.0022 131.567 42.9231 129.693 42.9231H121.963V54.6221H122.041Z" fill="#364CE5"/>
<path d="M149.838 60.3136V31.8566H156.319L156.865 40.1566L156.787 46.2432V60.3136H149.838ZM156.787 48.0613L156.553 41.7375C156.553 40.789 156.709 39.6823 157.1 38.5756C157.49 37.469 158.037 36.3623 158.895 35.3347C159.754 34.3071 160.847 33.5166 162.175 32.8052C163.58 32.1728 165.22 31.7776 167.25 31.7776H168.265V39.6823H167.25C165.298 39.6823 163.658 39.8404 162.253 40.1566C160.847 40.4728 159.832 40.947 158.974 41.5794C158.193 42.2118 157.568 43.0813 157.256 44.1089C156.943 45.2156 156.787 46.5594 156.787 48.0613Z" fill="#364CE5"/>
<path d="M182.866 61.0248C179.743 61.0248 177.166 60.3924 175.058 59.1277C172.95 57.8629 171.388 56.2029 170.295 53.9896C169.28 51.7763 168.734 49.3258 168.734 46.4802C168.734 43.6345 169.28 41.105 170.295 38.8916C171.31 36.6783 172.95 35.0183 175.058 33.7536C177.166 32.4888 179.821 31.8564 182.944 31.8564C187.551 31.8564 191.065 33.2002 193.407 35.8878C195.75 38.5754 196.999 42.1326 196.999 46.4802C196.999 49.1678 196.531 51.6973 195.516 53.9106C194.501 56.1239 192.939 57.8629 190.831 59.1277C188.723 60.3134 186.068 61.0248 182.866 61.0248ZM182.866 55.0172C184.897 55.0172 186.458 54.543 187.551 53.6734C188.644 52.8039 189.347 51.6973 189.738 50.3535C190.128 49.0097 190.284 47.5868 190.284 46.243C190.284 44.7411 190.128 43.3973 189.738 42.0535C189.347 40.7097 188.644 39.6031 187.551 38.7335C186.458 37.864 184.897 37.3897 182.866 37.3897C180.836 37.3897 179.353 37.864 178.26 38.7335C177.166 39.6031 176.464 40.7888 176.073 42.0535C175.683 43.3973 175.527 44.8202 175.527 46.243C175.527 47.6659 175.683 49.0097 176.073 50.3535C176.464 51.6973 177.166 52.8039 178.26 53.6734C179.275 54.622 180.836 55.0172 182.866 55.0172Z" fill="#364CE5"/>
<path d="M206.525 60.3135H199.498V21.3433H206.447V60.3135H206.525ZM206.213 53.4364V45.4526L218.471 31.6984H226.982L206.213 53.4364ZM213.24 40.6307L227.217 60.3135H218.862L208.165 45.5317L213.24 40.6307Z" fill="#364CE5"/>
<path d="M240.178 61.0249C236.977 61.0249 234.322 60.3135 232.292 58.8906C230.262 57.4678 228.778 55.6497 227.763 53.4364C226.748 51.2231 226.28 48.9307 226.202 46.4802C226.123 43.6345 226.67 41.105 227.841 38.8127C228.934 36.5993 230.574 34.8603 232.604 33.5165C234.712 32.2518 237.133 31.6194 239.944 31.6194C242.442 31.6194 244.707 32.1727 246.737 33.2794C248.767 34.386 250.329 35.967 251.5 37.9432C252.671 39.9193 253.296 42.2907 253.296 45.0574V46.8755H232.838C232.838 49.484 233.463 51.5392 234.791 52.9621C236.118 54.3849 237.836 55.0964 240.022 55.0964C241.74 55.0964 243.223 54.6221 244.395 53.7526C245.566 52.883 246.268 51.6973 246.503 50.2745H253.296C253.14 52.2507 252.515 54.0688 251.344 55.6497C250.251 57.2306 248.767 58.5744 246.893 59.523C245.019 60.5506 242.755 61.0249 240.178 61.0249ZM233.073 43.7926H246.347C246.268 43.4764 246.19 42.9231 246.112 42.2907C245.956 41.5793 245.644 40.8679 245.253 40.1565C244.785 39.445 244.16 38.8127 243.301 38.2593C242.442 37.7851 241.349 37.4689 239.944 37.4689C238.538 37.4689 237.445 37.706 236.586 38.1803C235.727 38.6546 235.025 39.2079 234.634 39.9193C234.166 40.6308 233.854 41.3422 233.619 41.9745C233.229 42.6069 233.151 43.2393 233.073 43.7926Z" fill="#364CE5"/>
<path d="M256.263 60.3136V31.8566H262.744L263.29 40.1566L263.212 46.2432V60.3136H256.263ZM263.212 48.0613L262.978 41.7375C262.978 40.789 263.134 39.6823 263.524 38.5756C263.915 37.469 264.461 36.3623 265.32 35.3347C266.179 34.3071 267.272 33.5166 268.6 32.8052C270.005 32.1728 271.645 31.7776 273.675 31.7776H274.69V39.6823H273.675C271.723 39.6823 270.083 39.8404 268.678 40.1566C267.272 40.4728 266.257 40.947 265.398 41.5794C264.618 42.2118 263.993 43.0813 263.681 44.1089C263.446 45.2156 263.212 46.5594 263.212 48.0613Z" fill="#364CE5"/>
<path d="M277.891 60.3135V21.3433H291.79C293.117 21.3433 294.445 21.4223 295.85 21.5804C297.256 21.7385 298.583 21.9756 299.832 22.3709C301.082 22.7661 302.253 23.3194 303.19 24.1099C304.205 24.9004 304.986 25.8489 305.532 27.1137C306.079 28.2994 306.391 29.8803 306.391 31.6984C306.391 33.2003 306.079 34.5441 305.532 35.8879C304.986 37.1527 303.971 38.1803 302.487 38.9708C301.003 39.7612 298.895 40.1565 296.084 40.2355V40.4727C299.286 40.4727 301.784 40.9469 303.502 41.8165C305.22 42.686 306.391 43.8717 307.094 45.2945C307.796 46.7174 308.109 48.2983 308.109 50.0373C308.109 51.7764 307.796 53.4364 307.172 54.7011C306.547 55.9659 305.688 56.9144 304.595 57.7049C303.502 58.4163 302.331 58.9697 301.003 59.3649C299.676 59.7601 298.271 59.9973 296.787 60.1554C295.303 60.3135 293.898 60.3925 292.571 60.3925H277.891V60.3135ZM282.264 38.4174H291.321C293.43 38.4174 295.303 38.2593 296.943 38.0222C298.505 37.785 299.754 37.1527 300.691 36.2832C301.55 35.4136 302.018 33.9908 302.018 32.0937C302.018 29.9594 301.55 28.3784 300.535 27.3508C299.52 26.3232 298.271 25.7699 296.631 25.5328C294.991 25.2956 293.273 25.1375 291.399 25.1375H282.264V38.4174ZM282.264 56.5983H292.18C294.288 56.5983 296.162 56.4402 297.88 56.124C299.598 55.8078 300.925 55.1754 302.018 54.1478C303.112 53.1202 303.58 51.6183 303.58 49.5631C303.58 47.5078 303.034 45.7688 301.94 44.7412C300.847 43.7136 299.364 43.0022 297.568 42.6069C295.772 42.2117 293.742 42.0536 291.478 42.0536H282.264V56.5983Z" fill="#262833"/>
<path d="M322.944 61.0249C319.977 61.0249 317.479 60.3925 315.527 59.1278C313.575 57.863 312.091 56.2031 311.076 53.9897C310.061 51.8555 309.592 49.326 309.592 46.5593C309.592 43.7927 310.061 41.2632 311.076 39.0498C312.091 36.8365 313.575 35.1765 315.527 33.9118C317.479 32.647 319.977 32.0146 322.944 32.0146C327.239 32.0146 330.596 33.3584 332.861 35.967C335.125 38.6546 336.296 42.1327 336.296 46.5593C336.296 49.2469 335.828 51.6974 334.891 53.9107C333.954 56.045 332.47 57.784 330.518 59.0487C328.488 60.3135 325.989 61.0249 322.944 61.0249ZM322.944 57.1516C325.365 57.1516 327.239 56.5983 328.488 55.5707C329.737 54.5431 330.674 53.1202 331.221 51.5393C331.767 49.8793 332.002 48.2193 332.002 46.5593C332.002 44.8993 331.767 43.1603 331.221 41.5003C330.674 39.8403 329.815 38.4965 328.488 37.3898C327.239 36.3622 325.365 35.8089 322.944 35.8089C320.524 35.8089 318.806 36.3622 317.479 37.3898C316.151 38.4175 315.214 39.8403 314.746 41.5003C314.277 43.1603 313.965 44.8203 313.965 46.5593C313.965 48.2983 314.199 49.9583 314.746 51.5393C315.214 53.1993 316.151 54.5431 317.479 55.5707C318.728 56.5983 320.602 57.1516 322.944 57.1516Z" fill="#262833"/>
<path d="M336.921 60.3136L347.071 45.7689L337.389 32.0938H342.387L349.882 42.9232L357.378 32.0938H362.375L352.693 45.7689L363 60.3136H358.003L349.96 48.6936L341.918 60.3136H336.921Z" fill="#262833"/>
<path d="M63.4801 18.5766H41.9297C30.3736 18.5766 21.0039 28.2994 21.0039 39.9984V61.8154C21.0039 62.6059 21.0039 63.6335 21.2381 64.4239C9.604 64.3449 0 54.7011 0 43.0022V21.1852C0 9.48622 9.604 0.000570703 21.16 0.000570703H42.7105C53.4857 -0.0784764 62.3089 8.06337 63.4801 18.5766Z" fill="#364CE5"/>
<path d="M84.6401 39.9984V61.8154C84.6401 73.5144 75.0361 83 63.4801 83H41.9297C31.1544 83 22.3313 74.8582 21.16 64.3449H42.7105C54.2665 64.3449 63.7143 54.7012 63.7143 43.0022V21.1852C63.7143 20.3947 63.7144 19.3671 63.4801 18.5767C75.0361 18.5767 84.6401 28.2994 84.6401 39.9984Z" fill="#262833"/>
<path d="M63.7143 21.1852V43.0022C63.7143 54.7012 54.2665 64.3449 42.7105 64.3449H21.16C20.9258 63.5544 20.9258 62.5268 20.9258 61.7364V39.9984C20.9258 28.2994 30.2955 18.5767 41.8516 18.5767H63.402C63.7143 19.3671 63.7143 20.3947 63.7143 21.1852Z" fill="white"/>
</svg>
